<?xml version="1.0" encoding="UTF-8"?>
<svg id="Layer_1" data-name="Layer 1" xmlns="http://www.w3.org/2000/svg" viewBox="0 0 792 612">
  <defs>
    <style>
      .cls-1, .cls-2, .cls-3, .cls-4, .cls-5, .cls-6, .cls-7, .cls-8, .cls-9 {
        stroke-miterlimit: 10;
      }

      .cls-1, .cls-3, .cls-6, .cls-7, .cls-8 {
        fill: none;
      }

      .cls-1, .cls-7, .cls-8, .cls-9 {
        stroke: #231f20;
      }

      .cls-2 {
        stroke: #000;
      }

      .cls-2, .cls-10, .cls-9 {
        fill: #231f20;
      }

      .cls-3 {
        stroke-width: 3px;
      }

      .cls-3, .cls-4 {
        stroke: #fff;
      }

      .cls-4 {
        font-family: Iceland-Regular, Iceland;
        font-size: 32.58px;
      }

      .cls-4, .cls-11 {
        fill: #fff;
      }

      .cls-5 {
        stroke-width: 2px;
      }

      .cls-5, .cls-6 {
        stroke: #af91c3;
      }

      .cls-5, .cls-12 {
        fill: #af91c3;
      }

      .cls-7 {
        stroke-width: 5px;
      }

      .cls-8 {
        stroke-width: 4px;
      }

      .cls-9 {
        stroke-width: .75px;
      }
    </style>
  </defs>
  <rect class="cls-12" width="792" height="612"/>
  <polygon class="cls-10" points="14.23 16.15 14.23 70.17 24.82 96.08 14.23 96.08 14.23 105.93 631.02 105.93 631.02 74.93 207.04 74.1 185.26 16.15 159.28 16.15 187.77 95.04 173.24 95.51 145.44 16.15 119.97 16.15 148.24 95.98 132.36 95.98 104.08 16.15 77.91 16.15 105.72 95.98 90.53 95.98 61.79 16.15 37.26 16.15 66 97.38 51.04 97.38 22.3 16.15 14.23 16.15"/>
  <polygon class="cls-10" points="640.57 75.57 651.33 75.57 665.55 90.56 653.06 105.93 640.57 105.93 653.06 90.75 640.57 75.57"/>
  <polygon class="cls-10" points="659.59 75.57 670.35 75.57 684.57 90.56 672.08 105.93 659.59 105.93 672.08 90.75 659.59 75.57"/>
  <polygon class="cls-10" points="677.7 75.57 688.46 75.57 702.69 90.56 690.19 105.93 677.7 105.93 690.19 90.75 677.7 75.57"/>
  <polygon class="cls-10" points="696.6 75.57 707.36 75.57 721.58 90.56 709.09 105.93 696.6 105.93 709.09 90.75 696.6 75.57"/>
  <polygon class="cls-10" points="715.5 75.57 726.26 75.57 740.48 90.56 727.99 105.93 715.5 105.93 727.99 90.75 715.5 75.57"/>
  <polygon class="cls-10" points="733.61 75.57 744.37 75.57 758.59 90.56 746.1 105.93 733.61 105.93 746.1 90.75 733.61 75.57"/>
  <rect class="cls-10" x="14.23" y="115.27" width="764.7" height="9.66"/>
  <polygon class="cls-6" points="463.05 580.27 483.98 592.01 504.91 580.27 463.05 580.27"/>
  <path class="cls-2" d="M74.4,124.77l-50.31,48.67-.04-21.37,32.28-29.61v-5.74h-12.45l-18.99,18.43v-18.43h-10.67v450.01h70.03V115.61h-9.86v9.16ZM63.58,380.6c2.31,0,4.52,1.28,6.19,3.57l1.42,1.95c1.79,2.46,2.8,5.86,2.8,9.41v17.37c0,3.81-1.21,7.41-3.28,9.79-2.54,2.91-5.69,4.5-8.94,4.5h-29.5c-2.15,0-4.18-1.39-5.53-3.78-2.37-4.2-1.73-10.4,1.39-13.44l28.38-27.6c1.19-1.16,2.59-1.77,4.03-1.77h3.06ZM73.98,349.41l-49.47,48.52v-22.61l49.47-48.8v22.88ZM73.53,310.6l-49.47,48.52v-22.61l49.47-48.8v22.88ZM73.53,274.89l-49.47,48.52v-22.61l49.47-48.8v22.88ZM73.53,237.46l-49.47,48.52v-22.61l49.47-48.8v22.88ZM73.53,200.42l-49.47,48.52v-22.61l49.47-48.8v22.88ZM73.53,163.35l-49.47,48.52v-22.61l49.47-48.8v22.88Z"/>
  <rect class="cls-7" x="441.8" y="163.24" width="198.77" height="61.12"/>
  <path class="cls-3" d="M483.87,171.3l24.45,41.02c.68,1.14-.14,2.59-1.47,2.59h-48.9c-1.33,0-2.15-1.45-1.47-2.59l24.45-41.02c.66-1.11,2.27-1.11,2.94,0Z"/>
  <line class="cls-3" x1="482.4" y1="180.47" x2="482.4" y2="200.51"/>
  <rect class="cls-3" x="481.3" y="204.06" width="2.21" height="2.21"/>
  <text class="cls-4" transform="translate(527.19 190.56)"><tspan x="0" y="0">2025</tspan></text>
  <text class="cls-4" transform="translate(527.19 211.58)"><tspan x="0" y="0">/2026</tspan></text>
  <polygon class="cls-10" points="314.84 568.33 358.58 509.1 358.58 499.65 349.76 489.56 358.58 434.75 371.81 425.61 373.7 403.24 428.52 312.82 406.15 312.82 399.85 324.48 370.24 323.53 370.24 362.6 383.78 375.51 365.19 392.21 365.19 406.71 341.57 430.33 333.69 478.85 314.84 495.55 295.25 478.54 288.64 431.28 263.43 406.08 263.43 391.58 245.47 375.51 259.02 361.97 259.34 324.16 230.35 324.48 222.79 312.82 199.79 312.82 254.93 404.5 257.76 426.24 271.62 435.06 280.13 490.83 269.73 502.17 269.73 509.73 314.84 568.33"/>
  <circle class="cls-1" cx="314.16" cy="482.8" r="3.15"/>
  <circle class="cls-1" cx="314.16" cy="314.53" r="3.15"/>
  <path class="cls-9" d="M312.66,317.3l-.63,5.14.23,15.14-14.24,7.68v24.04l-14.24,13.25v11.53l14.59,11.98,6.59,62.61,7.85,11.28s-1.8.78-1.8,2.85l-10.8-9.19-6.96-66.11-15.41-12.65v-12.17l15.04-13.99v-25.39l15.04-8.11-.24-15.99,3.77-3.06s.31.68,1.21,1.16Z"/>
  <path class="cls-9" d="M315.58,317.34l.68,5.1-.23,15.14,14.24,7.68v24.04s14.24,13.25,14.24,13.25v11.53s-14.59,11.98-14.59,11.98l-6.59,62.61-7.66,11.37s1.75.78,1.63,2.76l10.52-9.19,6.96-66.11,15.41-12.65v-12.17s-15.04-13.99-15.04-13.99v-25.39s-15.04-8.11-15.04-8.11l.24-15.99-3.56-2.94s-.55.72-1.21,1.08Z"/>
  <line class="cls-8" x1="314.16" y1="479.65" x2="314.16" y2="317.68"/>
  <polygon class="cls-10" points="270.66 393.57 250.83 375.3 263.3 364.58 262.6 324.53 267.44 337.88 283.78 337.65 283.78 365.5 269.97 377.69 270.66 393.57"/>
  <polygon class="cls-10" points="357.19 393.57 378.37 376.08 365.48 364.12 365.25 326.14 361.11 337.88 343.62 337.42 343.62 364.12 357.88 377.46 357.19 393.57"/>
  <polygon class="cls-10" points="269.65 333.26 290.48 333.26 298.19 328.01 298.19 315.15 308.22 307 253.83 225.7 226.87 168.45 232.15 229.86 269.65 333.26"/>
  <polygon class="cls-10" points="358.89 333.26 338.06 333.26 330.35 328.01 330.35 315.15 320.31 307 374.71 225.7 401.67 168.45 396.39 229.86 358.89 333.26"/>
  <polygon class="cls-10" points="270.49 462.92 267.3 435.78 232.3 413.34 211.87 407.98 228.95 435.45 270.49 462.92"/>
  <polygon class="cls-10" points="252.16 421.7 249.81 405.08 237.99 388.99 223.18 383.88 198.57 365.76 215.29 397.09 252.16 421.7"/>
  <polygon class="cls-10" points="357.99 464.62 361.18 437.48 396.18 415.04 416.62 409.68 399.53 437.15 357.99 464.62"/>
  <polygon class="cls-10" points="376.33 423.4 378.67 406.78 390.5 390.69 405.31 385.57 429.92 367.46 413.19 398.79 376.33 423.4"/>
  <polygon class="cls-11" points="226.87 238.57 238.28 264.97 216.12 308.82 199.79 308.82 228.85 261.2 219.03 250.86 226.87 238.57"/>
  <polygon class="cls-11" points="195.38 317.68 203.39 329.56 144.93 432.34 177.93 489.39 274.11 489.39 254.31 513.53 161.9 513.53 155.3 496.93 158.6 490.33 133.14 446.02 124.19 446.02 115.7 430.93 160.96 353.61 174.16 353.61 195.38 317.68"/>
  <polygon class="cls-11" points="261.85 224.9 250.83 202.27 267.3 171.15 283.78 171.15 287.78 176.34 341.06 176.34 343.62 171.15 360.99 171.15 378.37 202.27 366.51 227.26 347.18 194.73 280.71 196.14 261.85 224.9"/>
  <polygon class="cls-11" points="400.34 238.57 388.94 264.97 411.1 308.82 427.42 308.82 398.37 261.2 408.18 250.86 400.34 238.57"/>
  <polygon class="cls-11" points="431.84 317.68 423.82 329.56 482.29 432.34 449.28 489.39 353.11 489.39 372.91 513.53 465.31 513.53 471.91 496.93 468.61 490.33 494.07 446.02 503.03 446.02 511.52 430.93 466.26 353.61 453.06 353.61 431.84 317.68"/>
  <g>
    <line class="cls-5" x1="306.59" y1="535.03" x2="293.32" y2="519.59"/>
    <line class="cls-5" x1="323.56" y1="535.03" x2="336.83" y2="519.59"/>
    <circle class="cls-5" cx="292.08" cy="517.68" r="3.56"/>
    <circle class="cls-5" cx="338.23" cy="517.1" r="3.56"/>
  </g>
</svg>