<?xml version="1.0" encoding="UTF-8"?>
<svg id="Layer_1" data-name="Layer 1" xmlns="http://www.w3.org/2000/svg" viewBox="0 0 792 612">
  <defs>
    <style>
      .cls-1, .cls-2, .cls-3, .cls-4, .cls-5 {
        stroke-miterlimit: 10;
      }

      .cls-1, .cls-4 {
        fill: none;
        stroke-width: 5px;
      }

      .cls-1, .cls-5 {
        stroke: #fff;
      }

      .cls-2 {
        stroke: #000;
      }

      .cls-2, .cls-6 {
        fill: #231f20;
      }

      .cls-3 {
        stroke: #af91c3;
        stroke-width: 2px;
      }

      .cls-3, .cls-7 {
        fill: #af91c3;
      }

      .cls-4 {
        stroke: #231f20;
      }

      .cls-5 {
        fill: #fff;
        font-family: Iceland-Regular, Iceland;
        font-size: 37.32px;
      }
    </style>
  </defs>
  <rect class="cls-7" width="792" height="612"/>
  <polygon class="cls-6" points="14.23 16.15 14.23 70.17 24.82 96.08 14.23 96.08 14.23 105.93 631.02 105.93 631.02 74.93 207.04 74.1 185.26 16.15 159.28 16.15 187.77 95.04 173.24 95.51 145.44 16.15 119.97 16.15 148.24 95.98 132.36 95.98 104.08 16.15 77.91 16.15 105.72 95.98 90.53 95.98 61.79 16.15 37.26 16.15 66 97.38 51.04 97.38 22.3 16.15 14.23 16.15"/>
  <rect class="cls-6" x="14.23" y="115.27" width="764.7" height="9.66"/>
  <path class="cls-2" d="M74.4,124.77l-50.31,48.67-.04-21.37,32.28-29.61v-5.74h-12.45l-18.99,18.43v-18.43h-10.67v450.01h70.03V115.61h-9.86v9.16ZM63.58,380.6c2.31,0,4.52,1.28,6.19,3.57l1.42,1.95c1.79,2.46,2.8,5.86,2.8,9.41v17.37c0,3.81-1.21,7.41-3.28,9.79-2.54,2.91-5.69,4.5-8.94,4.5h-29.5c-2.15,0-4.18-1.39-5.53-3.78-2.37-4.2-1.73-10.4,1.39-13.44l28.38-27.6c1.19-1.16,2.59-1.77,4.03-1.77h3.06ZM73.98,349.41l-49.47,48.52v-22.61l49.47-48.8v22.88ZM73.53,310.6l-49.47,48.52v-22.61l49.47-48.8v22.88ZM73.53,274.89l-49.47,48.52v-22.61l49.47-48.8v22.88ZM73.53,237.46l-49.47,48.52v-22.61l49.47-48.8v22.88ZM73.53,200.42l-49.47,48.52v-22.61l49.47-48.8v22.88ZM73.53,163.35l-49.47,48.52v-22.61l49.47-48.8v22.88Z"/>
  <rect class="cls-4" x="448.77" y="177.45" width="227.67" height="70.01"/>
  <path class="cls-1" d="M494.31,184.68l30.67,51.45c.85,1.43-.18,3.24-1.84,3.24h-61.33c-1.66,0-2.69-1.81-1.84-3.24l30.67-51.45c.83-1.4,2.85-1.4,3.68,0Z"/>
  <line class="cls-1" x1="492.47" y1="196.17" x2="492.47" y2="221.31"/>
  <rect class="cls-1" x="491.08" y="225.77" width="2.78" height="2.78"/>
  <text class="cls-5" transform="translate(546.58 208.75)"><tspan x="0" y="0">2025</tspan></text>
  <text class="cls-5" transform="translate(546.58 232.83)"><tspan x="0" y="0">/2026</tspan></text>
  <g>
    <line class="cls-3" x1="306.59" y1="535.03" x2="293.32" y2="519.59"/>
    <line class="cls-3" x1="323.56" y1="535.03" x2="336.83" y2="519.59"/>
    <circle class="cls-3" cx="292.08" cy="517.68" r="3.56"/>
    <circle class="cls-3" cx="338.23" cy="517.1" r="3.56"/>
  </g>
  <g>
    <path class="cls-6" d="M777.98,331.73v-17.59c0-3.31-3.63-5.33-6.44-3.6l-29.29,18.05c-1.36.84-3.08.84-4.44,0l-29.29-18.05c-2.82-1.74-6.44.29-6.44,3.6v15.13c0,1.41.7,2.72,1.87,3.51l33.84,22.72c1.36.91,3.13.96,4.54.11l33.6-20.25c1.27-.76,2.04-2.14,2.04-3.62Z"/>
    <path class="cls-6" d="M777.98,287.04v-17.59c0-3.31-3.63-5.33-6.44-3.6l-29.29,18.05c-1.36.84-3.08.84-4.44,0l-29.29-18.05c-2.82-1.74-6.44.29-6.44,3.6v15.13c0,1.41.7,2.72,1.87,3.51l33.84,22.72c1.36.91,3.13.96,4.54.11l33.6-20.25c1.27-.76,2.04-2.14,2.04-3.62Z"/>
    <path class="cls-6" d="M777.98,243.44v-17.59c0-3.31-3.63-5.33-6.44-3.6l-29.29,18.05c-1.36.84-3.08.84-4.44,0l-29.29-18.05c-2.82-1.74-6.44.29-6.44,3.6v15.13c0,1.41.7,2.72,1.87,3.51l33.84,22.72c1.36.91,3.13.96,4.54.11l33.6-20.25c1.27-.76,2.04-2.14,2.04-3.62Z"/>
    <path class="cls-6" d="M777.98,198.38v-17.59c0-3.31-3.63-5.33-6.44-3.6l-29.29,18.05c-1.36.84-3.08.84-4.44,0l-29.29-18.05c-2.82-1.74-6.44.29-6.44,3.6v15.13c0,1.41.7,2.72,1.87,3.51l33.84,22.72c1.36.91,3.13.96,4.54.11l33.6-20.25c1.27-.76,2.04-2.14,2.04-3.62Z"/>
    <path class="cls-6" d="M777.98,155.14v-17.59c0-3.31-3.63-5.33-6.44-3.6l-29.29,18.05c-1.36.84-3.08.84-4.44,0l-29.29-18.05c-2.82-1.74-6.44.29-6.44,3.6v15.13c0,1.41.7,2.72,1.87,3.51l33.84,22.72c1.36.91,3.13.96,4.54.11l33.6-20.25c1.27-.76,2.04-2.14,2.04-3.62Z"/>
  </g>
  <g>
    <path class="cls-6" d="M777.52,546.42v-17.59c0-3.31-3.63-5.33-6.44-3.6l-29.29,18.05c-1.36.84-3.08.84-4.44,0l-29.29-18.05c-2.82-1.74-6.44.29-6.44,3.6v15.13c0,1.41.7,2.72,1.87,3.51l33.84,22.72c1.36.91,3.13.96,4.54.11l33.6-20.25c1.27-.76,2.04-2.14,2.04-3.62Z"/>
    <path class="cls-6" d="M777.52,501.73v-17.59c0-3.31-3.63-5.33-6.44-3.6l-29.29,18.05c-1.36.84-3.08.84-4.44,0l-29.29-18.05c-2.82-1.74-6.44.29-6.44,3.6v15.13c0,1.41.7,2.72,1.87,3.51l33.84,22.72c1.36.91,3.13.96,4.54.11l33.6-20.25c1.27-.76,2.04-2.14,2.04-3.62Z"/>
    <path class="cls-6" d="M777.52,458.13v-17.59c0-3.31-3.63-5.33-6.44-3.6l-29.29,18.05c-1.36.84-3.08.84-4.44,0l-29.29-18.05c-2.82-1.74-6.44.29-6.44,3.6v15.13c0,1.41.7,2.72,1.87,3.51l33.84,22.72c1.36.91,3.13.96,4.54.11l33.6-20.25c1.27-.76,2.04-2.14,2.04-3.62Z"/>
    <path class="cls-6" d="M777.52,413.07v-17.59c0-3.31-3.63-5.33-6.44-3.6l-29.29,18.05c-1.36.84-3.08.84-4.44,0l-29.29-18.05c-2.82-1.74-6.44.29-6.44,3.6v15.13c0,1.41.7,2.72,1.87,3.51l33.84,22.72c1.36.91,3.13.96,4.54.11l33.6-20.25c1.27-.76,2.04-2.14,2.04-3.62Z"/>
    <path class="cls-6" d="M777.52,369.83v-17.59c0-3.31-3.63-5.33-6.44-3.6l-29.29,18.05c-1.36.84-3.08.84-4.44,0l-29.29-18.05c-2.82-1.74-6.44.29-6.44,3.6v15.13c0,1.41.7,2.72,1.87,3.51l33.84,22.72c1.36.91,3.13.96,4.54.11l33.6-20.25c1.27-.76,2.04-2.14,2.04-3.62Z"/>
  </g>
</svg>