<?xml version="1.0" encoding="UTF-8"?>
<svg id="Layer_1" xmlns="http://www.w3.org/2000/svg" xmlns:xlink="http://www.w3.org/1999/xlink" version="1.1" viewBox="0 0 792 612">
  <!-- Generator: Adobe Illustrator 29.0.0, SVG Export Plug-In . SVG Version: 2.1.0 Build 186)  -->
  <defs>
    <style>
      .st0 {
        opacity: .51;
      }

      .st0, .st1, .st2, .st3, .st4, .st5 {
        fill: none;
        stroke: #7c51a1;
        stroke-miterlimit: 10;
      }

      .st0, .st2, .st4 {
        stroke-width: 2px;
      }

      .st1 {
        stroke-width: 4px;
      }

      .st1, .st2, .st3 {
        opacity: .5;
      }

      .st6 {
        fill: url(#linear-gradient);
      }

      .st7 {
        opacity: .98;
      }

      .st8 {
        fill: #7c51a1;
        opacity: .11;
      }
    </style>
    <linearGradient id="linear-gradient" x1="395.58" y1="612" x2="395.58" y2="0" gradientTransform="translate(701.58 -89.58) rotate(90)" gradientUnits="userSpaceOnUse">
      <stop offset="0" stop-color="#8851a0"/>
      <stop offset="0" stop-color="#854f9e"/>
      <stop offset=".04" stop-color="#6a3b83"/>
      <stop offset=".09" stop-color="#532b6e"/>
      <stop offset=".14" stop-color="#411f5d"/>
      <stop offset=".21" stop-color="#351651"/>
      <stop offset=".3" stop-color="#2e114a"/>
      <stop offset=".5" stop-color="#2c1049"/>
      <stop offset=".7" stop-color="#2e114a"/>
      <stop offset=".79" stop-color="#351651"/>
      <stop offset=".86" stop-color="#411f5d"/>
      <stop offset=".91" stop-color="#532b6e"/>
      <stop offset=".96" stop-color="#6a3b83"/>
      <stop offset="1" stop-color="#854f9e"/>
      <stop offset="1" stop-color="#8851a0"/>
    </linearGradient>
  </defs>
  <rect class="st6" x="89.58" y="-90.42" width="612" height="792.83" transform="translate(89.58 701.58) rotate(-90)"/>
  <line class="st4" x1="101.6" y1="114.3" x2="692.62" y2="114.3"/>
  <line class="st4" x1="101.6" y1="128.14" x2="286.65" y2="128.14"/>
  <polyline class="st4" points="104.21 155.43 117.09 141.79 332.27 141.79"/>
  <line class="st4" x1="692.62" y1="128.14" x2="507.57" y2="128.14"/>
  <polyline class="st4" points="690.01 155.43 677.14 141.79 461.96 141.79"/>
  <g class="st7">
    <g>
      <path class="st8" d="M93.08,474.98c16.34,14.26,33.1,28.06,49.35,42.43l.49.2c3.91-1.64,8-1.72,12.2-1.86,6.06-.19,12.13-.22,18.19-.29,19.95-.24,39.9-.13,59.84-.16,58.15-.09,116.31-.06,174.46-.06,56.05,0,112.1,0,168.15.04,19.32.01,38.64-.08,57.97-.03,7.79.02,15.58-.03,23.36.09l.48-.18c2.5-4.51,6.49-7.86,10.29-11.26,5.19-4.66,10.32-9.39,15.52-14.03,6.87-6.13,13.86-12.12,20.72-18.25,1.33-1.19-2.35-1.26-2.35-1.26-1.48-.02-2.96.03-4.44.14-.83-.05-1.59.13-2.29.53-4.8,4.05-9.6,8.08-14.36,12.17-3.15,2.72-6.29,5.45-9.42,8.19-3.99,3.5-7.87,7.13-12.1,10.35-1.59,1.17-3.14,2.39-4.65,3.65-1.5,1.23-3.1,2.3-4.81,3.22-1.12-.02-2.2-.21-3.33-.22-7.97-.04-15.95-.21-23.92-.26-7.52-.04-15.03.31-22.56.27-9.05-.05-18.1-.08-27.15-.1-19.05-.05-38.09-.08-57.14-.1-46.47-.05-92.94-.06-139.4-.05-44.66,0-89.32.02-133.99.1-10.2.02-20.4.04-30.6.07-6.69.02-13.4.2-20.09-.01-3.84-.29-7.68-.38-11.52-.26-3.53,0-7.05.02-10.58.04-4.97.02-9.94.06-14.91-.06-3.19-.08-6.44,0-9.61-.39-1.14-.14-2.86-.21-3.79-.94-.53-.56-1.05-1.13-1.58-1.69l-1.69-1.43c-3.29-2.78-6.55-5.61-9.81-8.43-7.31-6.33-14.71-12.56-22.1-18.79-4.43-3.73-8.54-7.82-12.74-11.8-1.36-1.29-1.13,2.71-1.13,2.73.06,1.69.19,3.38.38,5.07,0,.93.21,1.8.65,2.6Z"/>
      <path class="st8" d="M93.78,472.54c12.72,11.09,25.59,22,38.39,33,2.33,2.01,4.68,4,7.02,6,.97.8,1.92,1.62,2.84,2.48.33.3.66.59.99.89.58.22,1.15.13,1.7-.26,1.72-.46,3.48-.73,5.27-.82,4.34-.34,8.73-.43,13.08-.54,11.95-.29,23.91-.33,35.86-.27,19.65.1,39.3-.09,58.94-.11,46.85-.04,93.7-.04,140.56-.04,80.1,0,160.21-.23,240.31.01,4.34.01,8.69.04,13.03.05,1.3,0,2.6,0,3.9,0,.63.01,1.26.03,1.88.04.25.04.48-.03.68-.21.65-.96,1.35-1.87,2.1-2.75,1.8-2.15,3.82-4.1,5.85-6.03,12.62-11.97,25.87-23.25,38.85-34.82,1.32-1.18-2.32-1.24-2.32-1.24-1.46,0-2.91.05-4.36.17-.81-.04-1.56.14-2.25.54-4.76,4.07-9.56,8.09-14.29,12.21-7.11,6.19-13.97,12.67-21.15,18.77-1.57,1.24-3.06,2.58-4.45,4.02-1.4,1.33-2.84,2.62-4.32,3.87-.51.02-1.19-.14-1.68-.18-3.14-.23-6.37-.02-9.52-.07-3.83-.06-7.67-.1-11.5-.13-7.06-.06-14.09.17-21.15.24-8.65.09-17.31-.08-25.97-.1-18.53-.05-37.06-.08-55.59-.09-46.09-.05-92.19-.05-138.28-.05-45.22,0-90.43.01-135.65.09-17.52.03-35.04.16-52.56.16-4.04.05-8.07-.04-12.1-.28-3.75.02-7.5.05-11.24.07-5.41.04-10.82.1-16.23.15-4,.03-8,.27-12,.33-1.25.03-2.49.02-3.74-.05-.86.02-1.7-.09-2.52-.33-.53-.55-1.06-1.1-1.59-1.65l-1.69-1.43c-3.3-2.79-6.56-5.61-9.82-8.43-7.32-6.32-14.69-12.58-22.09-18.79-4.44-3.73-8.63-7.75-12.89-11.69-1.13-1.05-1.18,1.73-1.18,1.94.03,1.18.12,2.36.28,3.53-.01.68.19,1.28.6,1.8Z"/>
      <path class="st8" d="M94.52,474.4c12.73,11.12,25.62,22.05,38.44,33.06,2.89,2.48,5.83,4.92,8.69,7.43.62.54,1.45,1.64,2.2,1.95.58.36,1.18.29,1.79-.21,1.15-.33,2.33-.58,3.51-.75,3.58-.55,7.3-.5,10.91-.58,30.12-.68,60.28-.36,90.4-.39,47.94-.04,95.88-.04,143.81-.04,81.76,0,163.52-.19,245.27.01,4.35.01,8.69.04,13.04.04,1.9,0,3.93.2,5.82.03.96-.09,1.06-.71,1.55-1.47,1.86-2.87,4.44-5.31,6.92-7.62,12.71-11.86,25.94-23.14,38.9-34.73,1.46-1.31-2.93-1.25-2.83-1.25-1.8-.01-3.59.04-5.38.16-.98-.05-1.91.13-2.78.54-5.82,4.89-11.64,9.77-17.39,14.74-4.22,3.64-8.41,7.32-12.59,10.99-3.91,3.43-8.1,6.56-12.22,9.74l.42-.31c-.86.65-1.76,1.26-2.68,1.83l.48-.22-.79.35.51-.16c-1.92-.26-3.77-.26-5.72-.27-4.99-.03-9.99-.15-14.98-.21-3.92-.05-7.86-.14-11.77-.07s-7.69.3-11.54.35c-9.85.12-19.71-.1-29.56-.14-56.8-.18-113.6-.17-170.41-.17-57.24,0-114.49,0-171.73.13-10.99.03-21.97.06-32.96.11-5.15.03-10.26-.23-15.4-.36-3.74-.09-7.49.03-11.23.04-7.22.03-14.44.11-21.66-.03-3.78-.07-7.68.12-11.38-.78l.49.2c-2.44-2.6-5.23-4.77-7.93-7.1-5.44-4.69-10.86-9.41-16.33-14.07s-11.19-9.11-16.39-14.09c-2.49-2.38-4.98-4.74-7.48-7.11-1.37-1.3-1.12,2.74-1.12,2.75.07,1.7.21,3.39.41,5.08,0,.94.22,1.8.67,2.6Z"/>
      <path class="st8" d="M96.29,477.47c9.76,8.55,19.65,16.95,29.5,25.38,5.34,4.56,10.66,9.14,16,13.7,1.16.99,2.33,2.3,3.62,3.15.81.53,1.27.19,2.17-.07,2.28-.65,4.63-.91,6.98-1.04,3.27-.18,6.54-.34,9.82-.44,10.59-.31,21.21-.4,31.8-.4,31.78-.02,63.55-.07,95.33-.09,79.74-.03,159.48-.02,239.22,0,30.64,0,61.28.17,91.92,0,12.84-.07,25.7-.11,38.54.05l.48-.19c1.95-3.68,4.84-6.52,7.85-9.35,5.46-5.13,10.99-10.19,16.56-15.21,7.39-6.65,14.94-13.13,22.33-19.79,1.3-1.17-2.26-1.24-2.27-1.24-1.43-.01-2.85.05-4.28.17-.8-.04-1.53.14-2.2.54-4.79,4.08-9.61,8.12-14.36,12.24-3.15,2.73-6.29,5.48-9.42,8.24-4.03,3.55-7.93,7.25-12.15,10.58-1.6,1.25-3.19,2.52-4.77,3.8-1.61,1.27-3.25,2.49-4.94,3.65-.61.04-1.17-.11-1.81-.17-3.11-.29-6.39-.02-9.51-.08-3.83-.07-7.66-.11-11.5-.15-7.07-.06-14.1.19-21.16.27-8.65.1-17.31-.08-25.96-.11-18.53-.06-37.06-.08-55.58-.11-46.09-.05-92.19-.06-138.28-.06-45.22,0-90.44.02-135.66.1-17.52.03-35.04.17-52.56.17-4.03.07-8.06-.03-12.08-.3-3.75.02-7.49.05-11.24.07-5.4.05-10.81.11-16.21.16-3.93.04-7.86.21-11.79.26-1.19.03-2.39.02-3.58-.03-1.04.41-1.93.36-2.67-.17-.52-.56-1.03-1.11-1.55-1.67l-1.69-1.43c-3.3-2.79-6.56-5.61-9.82-8.43-7.31-6.32-14.68-12.58-22.09-18.79-4.45-3.74-8.62-7.78-12.84-11.77-1.23-1.17-1.15,2.17-1.14,2.27.05,1.39.17,2.77.35,4.15,0,.78.21,1.49.64,2.11Z"/>
      <path class="st8" d="M96.38,475.06c12.72,11.12,25.61,22.03,38.42,33.03,2.34,2.01,4.68,4,7.02,6,.97.8,1.92,1.63,2.85,2.48.33.3.66.59.99.89.61.25,1.23.18,1.84-.22,1.2-.28,2.41-.5,3.63-.67,3.67-.48,7.44-.52,11.13-.65,11.22-.4,22.47-.46,33.7-.45,18.93,0,37.85-.03,56.78-.05,46.29-.04,92.57-.04,138.86-.04,81.98,0,163.97-.15,245.95,0,7.47.01,14.95-.04,22.41.07,1.51.02,1.31-.07,2.32-1.53,1.99-2.86,4.66-5.4,7.14-7.77,12.61-12.05,25.94-23.3,38.92-34.94,1.43-1.28-2.8-1.22-2.7-1.22-1.7,0-3.4.08-5.1.21-.93-.04-1.81.15-2.63.57-4.77,4.05-9.58,8.05-14.32,12.14-3.14,2.71-6.26,5.45-9.36,8.2-3.95,3.49-7.78,7.12-11.92,10.39-1.56,1.16-3.05,2.4-4.48,3.72-1.44,1.25-2.93,2.44-4.47,3.56-.4.08-1.31-.16-1.65-.19-3.11-.29-6.38-.02-9.5-.09-3.83-.08-7.66-.12-11.48-.16-7.08-.07-14.12.21-21.19.29-8.64.1-17.3-.09-25.95-.12-18.52-.06-37.05-.09-55.57-.11-46.09-.06-92.18-.07-138.27-.06-45.22,0-90.44.02-135.66.1-17.52.03-35.04.2-52.56.19-4.02.06-8.03-.05-12.04-.33-3.74.03-7.49.05-11.23.08-5.39.05-10.78.12-16.17.18-3.9.04-7.8.19-11.7.34-1.16.07-2.32.1-3.48.08-1.56.77-2.36.74-2.42-.1-.51-.55-1.03-1.1-1.54-1.65l-1.69-1.43c-3.3-2.78-6.56-5.61-9.82-8.43-7.31-6.33-14.69-12.58-22.1-18.79-4.43-3.72-8.57-7.76-12.78-11.72-1.21-1.14-1.15,2.06-1.15,2.18.05,1.33.16,2.66.34,3.98,0,.76.21,1.43.63,2.03Z"/>
      <path class="st8" d="M91.58,473.34c8.19,7,16.38,14.01,24.57,21.01s16.63,13.85,24.57,21.15c.23.24.5.31.82.23,2.36-.76,4.86-.87,7.32-1.04,4.32-.31,8.65-.49,12.97-.64,9.96-.34,19.95-.43,29.92-.41,30.27.05,60.54-.09,90.82-.1,75.27-.04,150.53-.03,225.8-.01,48.14,0,96.29.07,144.43.05,1.3,0,3.38.47,4.5-.33l1.93-2.45c1.3-1.46,2.62-2.9,3.98-4.3,2.6-2.71,5.28-5.33,8-7.91,10.7-10.17,21.89-19.78,32.88-29.62,1.79-1.6-2.5-2.06-3.38-1.28-7.83,6.99-15.77,13.84-23.52,20.93s-15.82,14.51-22.82,22.58l.74-.39c-6.88-.3-13.81-.1-20.7-.12-18.81-.06-37.62.04-56.43.03-58.92-.05-117.84-.04-176.76-.04-57.78,0-115.57-.03-173.35.08-19.44.04-38.88-.06-58.32.27-9.65.17-19.28.62-28.93.84l.82.23c-2.53-2.43-5.25-4.64-7.92-6.92-5.46-4.68-10.9-9.37-16.37-14.04-8.1-6.92-16.19-13.86-24.29-20.79-.45-.38-1.14-.52-1.49.11-.28.49-.25,2.51.21,2.9Z"/>
      <path class="st8" d="M91.7,474.53c16.28,14.33,33.14,28,49.31,42.46l.47.14c3.86-1.72,8.14-1.53,12.28-1.67,6.11-.21,12.23-.25,18.35-.33,19.95-.26,39.91-.14,59.86-.17,58.16-.09,116.31-.07,174.47-.07,56.05,0,112.1,0,168.15.04,19.32.01,38.65-.08,57.97-.03,7.77.02,15.55-.08,23.32.11l.42-.23c2.03-3.45,5.04-6.1,7.95-8.8,5.5-5.1,11.04-10.17,16.62-15.18,7.38-6.64,14.92-13.1,22.32-19.72,1.07-.96-1.46-1.26-1.65-1.27-1.27-.07-3.59-.27-4.64.64-4.78,4.11-9.59,8.19-14.34,12.34-7.25,6.32-14.27,12.94-21.61,19.15-2.83,2.39-5.63,4.83-8.57,7.09-.48.5-1.05.86-1.69,1.07-.53-.06-1.07-.12-1.6-.18-2.65-.19-5.36,0-8.02-.04-4.34-.06-8.67-.11-13.01-.14-7.05-.05-14.08.14-21.13.21-8.65.08-17.32-.07-25.97-.09-18.53-.05-37.06-.07-55.59-.08-47.75-.04-95.49-.05-143.24-.04-46.31,0-92.62.01-138.93.08-10.2.02-20.4.03-30.61.06-6.71.02-13.44.19-20.15.03-13.1-.3-26.2-.14-39.3-.12-2.85,0-5.68.12-8.5-.23-1.17-.14-3.25-.16-4.33-.8-.28-.29-.55-.58-.83-.87-.8-.91-1.69-1.73-2.66-2.45-3.3-2.79-6.56-5.61-9.82-8.43-7.31-6.32-14.69-12.57-22.09-18.79-4.45-3.74-8.63-7.79-12.88-11.76-1.2-1.12-1.18,1.97-1.18,2.14.03,1.32.12,2.63.28,3.93-.02.75.18,1.42.6,2.01Z"/>
      <path class="st8" d="M93.62,478.11c16.35,14.28,33.13,28.08,49.4,42.46l.48.17c3.17-1.4,6.14-1.68,9.56-1.84,5.56-.26,11.12-.4,16.68-.49,19-.28,38-.22,57-.26,59.01-.11,118.02-.08,177.03-.08,57.71,0,115.41,0,173.12.03,19.32.01,38.64-.07,57.96-.03,7.79.02,15.58-.04,23.37.09l.45-.21c2.29-4.77,6.82-8.05,10.6-11.59,5.1-4.79,10.27-9.51,15.48-14.18,6.87-6.14,13.86-12.14,20.72-18.3,1.11-1-1.59-1.25-1.75-1.26-1.33-.06-3.81-.27-4.92.67-4.8,4.11-9.62,8.18-14.39,12.32-7.3,6.33-14.35,13.02-21.86,19.09-2.89,2.34-5.86,4.55-8.99,6.56-.94.61-1.45,1.06-2.52.91-2.46-.34-5.02-.13-7.49-.16-4.83-.05-9.66-.16-14.49-.19-5.09-.04-10.14-.04-15.23.1-8.32.22-16.64.1-24.96.08-17.98-.06-35.95-.09-53.93-.11-47.31-.06-94.61-.07-141.92-.07-46.87,0-93.75.01-140.62.09-17.53.03-35.06.16-52.6.15-4.04.07-8.07-.04-12.1-.31-3.76.02-7.52.03-11.28.05-4.78.03-9.56.07-14.34.07-4.63,0-9.39.27-14.01-.05-1.23-.12-2.45-.27-3.66-.47-.95-.1-1.87-.32-2.75-.67l-.59-.65c-.77-.93-1.65-1.75-2.64-2.46-3.3-2.78-6.55-5.61-9.82-8.43-7.31-6.33-14.69-12.57-22.1-18.79-4.44-3.73-8.57-7.79-12.77-11.79-1.3-1.24-1.15,2.46-1.14,2.51.05,1.55.17,3.1.35,4.64,0,.86.2,1.66.64,2.38Z"/>
      <path class="st8" d="M95.9,472.94c12.7,11.11,25.58,21.99,38.38,32.99,2.89,2.48,5.84,4.91,8.7,7.43.32.28,1.51,1.64,2.1,1.9.75.33,2.15-.39,2.91-.53,3.36-.61,6.85-.76,10.25-.97,12.36-.77,24.81-.78,37.19-.77,18.92.02,37.84-.04,56.75-.06,46.29-.05,92.58-.05,138.86-.05,83.41,0,166.82-.21,250.23.01,6.03.02,12.07-.06,18.1.07,1.41.03,1.27-.16,2.29-1.46,2.2-2.79,4.73-5.31,7.28-7.78,12.53-12.14,25.86-23.39,38.86-35.01,1.33-1.18-2.36-1.21-2.33-1.21-1.46.01-2.91.09-4.36.23-.81-.03-1.56.16-2.24.57-8.94,7.7-17.93,15.33-26.65,23.29-4.98,4.55-9.96,9.1-14.69,13.91.49-.5-2.48,2.64-2.61,2.67-.52-.06-1.04-.13-1.56-.19h-1.72c-6.44-.02-12.87-.13-19.3-.18-11.18-.09-22.35.21-33.52.17-33.54-.12-67.08-.13-100.62-.15-76.58-.04-153.16-.06-229.74.05-15.97.02-31.95.05-47.92.11-6.86.03-13.71.1-20.57.09-5.81,0-11.6-.2-17.42-.14-8.82.09-17.68.1-26.47.81-3.89.31-7.98.43-11.83,1.16l.86.39c-1.89-1.89-3.87-3.59-5.91-5.32-5.74-4.86-11.4-9.8-17.11-14.69-6.03-5.16-12.23-10.15-18.12-15.47-2.57-2.32-5.1-4.68-7.63-7.04-.91-.84-1.21,1.08-1.22,1.41-.03,1.04-.09,3,.78,3.76Z"/>
      <path class="st8" d="M92.18,476.84c16.32,14.3,33.13,28.04,49.35,42.45l.48.17c3.12-1.49,5.97-1.63,9.37-1.75,5.58-.21,11.15-.36,16.73-.43,19-.26,37.99-.2,56.99-.24,59.01-.12,118.02-.08,177.04-.08,57.7,0,115.41,0,173.11.04,19.32.01,38.65-.08,57.97-.03,7.77.02,15.56-.06,23.33.1l.44-.22c1.8-3.73,5.02-6.19,8.06-8.88,5.6-4.98,10.96-10.23,16.53-15.24,7.38-6.64,14.92-13.1,22.32-19.73,1.06-.95-1.42-1.25-1.61-1.26-1.26-.06-3.47-.22-4.51.67-4.79,4.11-9.61,8.18-14.37,12.33-7.31,6.36-14.37,13.03-21.83,19.2-2.91,2.41-5.9,4.7-9.08,6.75-1.06.69-1.36,1.04-2.5.89-2.46-.32-5.01-.12-7.48-.15-3.42-.03-6.83-.12-10.25-.15-6.49-.06-12.97-.12-19.47.05-8.32.22-16.64.1-24.96.07-17.97-.06-35.95-.09-53.92-.11-48.96-.06-97.91-.07-146.87-.06-46.6,0-93.19.02-139.79.09-9.15.01-18.3.03-27.45.06-9.13.02-18.3.29-27.43.04-3.84-.28-7.69-.36-11.54-.24-3.55,0-7.1.03-10.64.05-5.05.03-10.11.04-15.16,0-3.43-.03-6.91.18-10.3-.4-1.17-.2-3.2-.29-4.26-.97-.27-.29-.53-.58-.8-.87-.77-.93-1.65-1.74-2.63-2.45-2.82-2.39-5.63-4.79-8.42-7.22-7.76-6.76-15.62-13.39-23.49-20.01-4.43-3.72-8.55-7.78-12.73-11.77-1.28-1.22-1.16,2.37-1.16,2.45.04,1.51.15,3.02.33,4.53-.01.84.19,1.62.62,2.32Z"/>
      <path class="st8" d="M94.56,472.7c12.82,10.9,25.61,21.83,38.37,32.8,2.89,2.48,5.86,4.89,8.7,7.43.68.6,1.52,1.74,2.43,2.1h.45c1.49-.41,3-.69,4.53-.86,3.98-.53,7.99-.82,11.99-1.09,13.03-.88,26.19-.67,39.24-.63,19.65.07,39.31-.13,58.96-.15,47.01-.05,94.03-.04,141.04-.04,47.17,0,94.33,0,141.5.02,34.07.01,68.15-.14,102.21,0,4.95.02,9.91.09,14.85.1,1.2,0,1.16-.51,1.97-1.54,2.19-2.83,4.78-5.47,7.31-8,12.31-12.34,25.79-23.5,38.77-35.13,1.12-1-1.64-1.22-1.77-1.23-1.34-.04-3.81-.2-4.91.76-7.31,6.4-14.7,12.69-21.89,19.24-4.9,4.46-9.68,9.04-14.43,13.66-1.81,1.76-3.43,3.71-5.09,5.61-1,1.14-2.03,2.27-2.91,3.52l.85-.32c-1.88-.14-3.74-.13-5.62-.13-5.09,0-10.18-.06-15.27-.09-18.73-.09-37.46.07-56.19.05-59.08-.08-118.16-.07-177.23-.07s-115.23-.03-172.85.12c-19.53.05-39.07-.08-58.6.32-6.32.13-12.57.45-18.86,1.16-2.84.32-5.7.57-8.5,1.11l.82.19c-2.54-2.42-5.26-4.63-7.92-6.91-5.46-4.68-10.91-9.37-16.37-14.04-8.1-6.92-16.17-13.87-24.3-20.75-1.62-1.37-2.17,2.01-1.27,2.78Z"/>
      <path class="st8" d="M90.98,474.18c7.04,6.29,14.2,12.4,21.38,18.53,5.69,4.85,11.37,9.71,17.04,14.58,3.49,2.99,7.04,5.91,10.42,9.02.21.29.49.4.84.34,1.55-.57,3-.78,4.63-.91,3.45-.29,6.96-.28,10.42-.43,8.82-.38,17.66-.43,26.49-.5,30.2-.24,60.4-.12,90.6-.14,78.2-.04,156.4-.03,234.6-.02,32.65,0,65.3,0,97.96.05,16.05.02,32.14-.36,48.19,0,.53.01,1.44.16,2.02.07,1.24-.19,2.21-2.28,2.68-2.83,4.55-5.26,9.92-9.93,14.98-14.68,9.87-9.27,20.15-18.06,30.23-27.09.44-.4.47-1.16-.09-1.49s-2.36-.25-2.84.17c-15.97,14.24-32.08,28.33-47.32,43.37l.75-.38c-2.74-.15-5.49-.08-8.24-.08-8.98-.01-17.96-.15-26.95-.07-28.65.27-57.32.03-85.97.02-78.1-.03-156.2-.03-234.3,0-32.18.01-64.36-.03-96.54.12-11.19.05-22.37,0-33.56.14-7.34.1-14.73.53-22.06.26-1.88-.07-3.87-.02-5.74-.27-.46.15-.81-.04-1.03-.56l-.97-.95c-3.78-3.57-7.95-6.79-11.89-10.18-11.78-10.16-23.93-19.93-35.18-30.69-.82-.79-1.23.89-1.25,1.25-.06.98-.11,2.65.69,3.36Z"/>
    </g>
  </g>
  <polyline class="st4" points="93.66 474.76 142.82 515.97 652.84 515.97 700.92 474.76"/>
  <g>
    <g class="st7">
      <g>
        <path class="st8" d="M138.88,542.73c4.35-3.9,8.7-7.8,13.03-11.74l-8.27.93c6.24.96,12.27,2.37,18.56,2.88,8.31.67,16.67.77,25,.97,24.16.56,48.34.46,72.51.5,34.22.05,68.45-.05,102.67.07,1.88,0-1.23-2.67-1.14-2.59-1.22-1.05-2.48-2.04-3.78-2.98-.65-.61-1.4-1-2.25-1.19-2.65-.49-5.57-.21-8.24-.24-6.75-.08-13.5-.28-20.24-.1-21.99.59-44.03.12-66.03.11-22.59,0-45.18.1-67.76.1-5.2,0-10.39-.31-15.59-.29-4.58.02-9.16.04-13.74.03-2.97,0-5.93.02-8.9.11-1.71-.14-3.4-.02-5.06.36-1.55.31-3.11.55-4.68.71,2.59.55,5.18,1.11,7.77,1.66l-.62-1.47c-.08-1.63-8.62-.34-9.32.26-4.23,3.61-8.51,7.17-12.81,10.7-1.35,1.11,2.15,1.41,2.22,1.42,1.46.12,2.91.18,4.38.17.81.1,1.57-.02,2.29-.36Z"/>
        <path class="st8" d="M139.8,540.3c4.36-3.91,8.71-7.83,13.04-11.77l-8.19.98c3.1.87,6.45,1.23,9.62,1.82,2.86.54,5.77.78,8.66,1.02,8.33.71,16.68.83,25.03,1.03,24.16.59,48.33.46,72.49.5,22.63.03,45.26.23,67.89.06,11.58-.09,23.17-.13,34.75.02,1.69.02-.81-2.3-.79-2.28-1.32-1.17-3.14-2.93-4.95-3.22-2.19-.36-4.5-.18-6.72-.2-6.3-.04-12.59-.19-18.89-.17-5,.01-9.99.29-15,.27-5.53-.03-11.06-.04-16.59-.06-11.15-.03-22.29-.04-33.44-.05-22.72-.02-45.44-.04-68.17-.02-4.36,0-8.73,0-13.09-.19-4.88-.21-9.75-.12-14.63-.18-3.29-.04-6.58-.14-9.87-.21-2.04-.02-4.09-.05-6.13-.09-2.89-.11-5.76.07-8.63.55,2.39.5,4.79.99,7.18,1.49l-.34-1.53c.17-1.46-8.6-.23-9.24.32-4.24,3.63-8.52,7.2-12.83,10.75-1.35,1.11,2.15,1.4,2.21,1.4,1.44.11,2.89.16,4.34.14.81.1,1.56-.03,2.27-.38Z"/>
        <path class="st8" d="M140.56,542.3c4.34-3.94,8.69-7.86,13.02-11.81l-10.04,1.03c6.16.96,12.27,2.17,18.47,2.74,3.42.32,6.86.49,10.28.65,8.63.39,17.28.55,25.92.68,23.6.34,47.21.27,70.82.3,31.63.04,63.27.13,94.9.05,1.99,0-1.5-2.89-1.37-2.78-1.37-1.16-2.78-2.28-4.23-3.34-.72-.67-1.55-1.13-2.48-1.38-2.68-.52-5.52-.22-8.24-.26-7.71-.09-15.41-.24-23.12-.02-9.81.28-19.62.11-29.42.08-12.54-.03-25.09-.04-37.63-.05-11.63,0-23.27,0-34.9.02s-23.75.34-35.61.03c-4.96-.13-9.9-.23-14.87-.2-4.23.03-8.5-.14-12.73.02-2.68.1-5.47.12-8.13.45-2.05.25-4.19.96-6.24,1.35l9.3,1.75-.72-.89.28.45.04-1.15c.05-1.51-10.57-.25-11.31.38-4.24,3.58-8.54,7.09-12.85,10.6-1.5,1.22,2.77,1.44,2.73,1.44,1.78.13,3.56.2,5.35.2.97.11,1.9,0,2.79-.35Z"/>
        <path class="st8" d="M143.16,544.38c4.36-3.93,8.71-7.88,13.05-11.85-2.89.24-5.77.48-8.66.72,1.35.89,3.12.93,4.63,1.25,3.31.71,6.6,1.52,9.95,2.01,7.68,1.11,15.51,1.26,23.26,1.48,24.82.7,49.66.62,74.49.66,35.53.07,71.06,0,106.59.08,1.88,0-1.26-2.64-1.15-2.55-1.62-1.4-3.83-3.55-6-4-2.61-.54-5.57-.22-8.2-.25-6.75-.08-13.5-.28-20.24-.1-21.99.57-44.03.11-66.02.1-22.57-.01-45.14.07-67.71.06-5.2,0-10.38-.31-15.57-.3-4.56,0-9.12.01-13.68-.04-2.93-.03-5.86-.05-8.79-.04-1.68-.2-3.34-.13-4.98.21-1.53.28-3.07.44-4.63.46l7.42,1.59-.5-1.78c.04-1.58-8.29-.25-8.94.3-4.23,3.62-8.49,7.22-12.8,10.74-1.32,1.08,2.01,1.42,2.11,1.43,1.39.13,2.78.19,4.18.19.78.11,1.51-.01,2.19-.36Z"/>
        <path class="st8" d="M143.1,542.41c4.35-3.94,8.71-7.89,13.04-11.85-3.17.37-6.34.74-9.51,1.12,6.54,1.09,12.87,2.54,19.46,3.15,8.29.77,16.64.86,24.96,1.06,24.15.58,48.33.48,72.49.51,34.22.05,68.45,0,102.67.07,1.91,0-1.34-2.7-1.22-2.59-1.26-1.03-2.55-2.01-3.89-2.94-.67-.6-1.43-.99-2.29-1.16-2.6-.54-5.56-.22-8.19-.25-6.74-.08-13.49-.29-20.24-.1-21.99.61-44.04.12-66.04.11-22.59-.01-45.19.09-67.78.05-5.21,0-10.4-.35-15.6-.34-4.6,0-9.19,0-13.78-.05-3-.04-5.99-.03-8.98.01-1.77-.2-3.51-.09-5.21.34-1.63.36-3.29.6-4.96.74,2.88.53,5.75,1.06,8.63,1.59l-.27-1.76c.16-1.4-10.01-.13-10.72.47-4.24,3.57-8.51,7.1-12.84,10.57-1.47,1.18,2.6,1.43,2.57,1.43,1.68.13,3.36.19,5.05.19.92.11,1.8,0,2.64-.35Z"/>
        <path class="st8" d="M139.37,539.72c4.2-3.75,8.31-7.62,12.48-11.4l-3.73.11c1.66,1.86,4.83,2.43,7.2,3.09,7.37,2.05,15.4,2.05,22.98,2.27,24.4.72,48.81.69,73.22.74s48.45.13,72.67.1c12.57-.02,25.17-.29,37.75.02.6.01,1.09-.62.89-1.2s-1.62-1.65-2.26-1.67c-8.57-.21-17.17-.1-25.75-.1-21.66,0-43.32.05-64.98.02-22.67-.03-45.34-.03-68.02-.21-9.17-.07-18.33-.22-27.5-.52-3.24-.11-6.5-.2-9.73-.44-1.89-.2-3.79-.43-5.67-.69-2.46-.21-4.82-.87-7.08-1.99l.33.78.04-1.1c.05-1.34-3.42-.73-3.89-.32-3.97,3.56-7.93,7.13-11.87,10.72-.53.48-1.42,1.07-.75,1.83s3.02.53,3.66-.04Z"/>
        <path class="st8" d="M138.11,542.16c4.28-3.92,8.58-7.82,12.88-11.72l-5.72.79c5.04,1.47,10.03,2.59,15.27,3.11,6.52.65,13.1.8,19.65.96,24.81.61,49.64.57,74.46.61,23.93.04,47.86.25,71.79.07,11.58-.09,23.17-.17,34.74.03,1.57.03-.55-2.1-.59-2.14-1.17-1.07-2.77-2.57-4.39-2.82-2.69-.41-5.5-.16-8.22-.18-7.7-.06-15.4-.19-23.1-.03-10.99.23-21.98.07-32.97.05-12.65-.02-25.31-.03-37.96-.04-12.83,0-25.65,0-38.48,0-10.32,0-20.67.25-30.99-.15-8.63-.34-17.29-.02-25.92-.4-3.99-.18-7.96-.13-11.94-.3l5.21,1.44-.69-1.43c-.05-1.63-5.86-.44-6.47.1-4.2,3.68-8.44,7.33-12.68,10.96-1.07.91,1.25,1.35,1.52,1.39,1.12.15,3.66.59,4.62-.28Z"/>
        <path class="st8" d="M140.37,545c4.29-3.93,8.6-7.84,12.9-11.75-2.18.19-4.36.39-6.54.58.71.9,3.66,1.21,3.73,1.22,2.95.74,5.88,1.51,8.9,1.97,7.6,1.17,15.45,1.2,23.12,1.41,24.82.67,49.65.6,74.48.65,35.52.07,71.04-.17,106.56.08,1.77.01-1-2.45-.94-2.4-1.46-1.28-3.43-3.17-5.41-3.56-2.15-.42-4.48-.21-6.67-.22-6.29-.04-12.59-.2-18.88-.18-5.01.02-10.01.31-15.02.28-5.53-.03-11.06-.05-16.59-.06-11.14-.03-22.28-.04-33.42-.05-22.69-.01-45.38-.01-68.07.06-4.34.01-8.67.03-13.01-.15-4.82-.2-9.64-.08-14.47-.1-3.22-.01-6.44-.05-9.67-.09-1.9-.03-3.81-.06-5.71-.11-1.91-.1-3.82,0-5.72.27l5.67,2.26-2.42-2.75c-.54-.61-2.85-.26-3.32-.21-1.04.1-2.4.08-3.23.8-4.2,3.64-8.4,7.27-12.65,10.86-1.1.93,1.31,1.37,1.57,1.41,1.13.16,3.83.66,4.8-.23Z"/>
        <path class="st8" d="M142.56,539.88c4.36-3.93,8.71-7.87,13.05-11.82l-8.2,1.09c5.78,1.36,11.53,2.45,17.44,3.04,8.53.85,17.1.96,25.66,1.17,24.15.61,48.32.48,72.47.52,22.63.04,45.26.22,67.89.06,11.57-.08,23.16-.14,34.74.02,1.59.02-.67-2.13-.67-2.14-1.26-1.09-2.85-2.45-4.52-2.73-3.22-.54-6.68-.17-9.95-.22-7.11-.09-14.21-.17-21.32,0-9.8.22-19.61.08-29.42.06-11.25-.03-22.49-.04-33.74-.05-21.43-.02-42.86-.04-64.3-.08-5.37-.01-10.73-.21-16.09-.36-3.87-.11-7.74-.04-11.61-.12-4.51-.1-9.02-.27-13.53-.51-5.15-.27-5.15.03-11.44.14l6.96,1.35-.16-1.72c.27-1.31-8.62-.1-9.27.45-4.24,3.61-8.5,7.18-12.82,10.69-1.36,1.1,2.17,1.39,2.22,1.4,1.45.11,2.89.15,4.34.13.81.1,1.56-.03,2.27-.39Z"/>
        <path class="st8" d="M138.84,544.04c4.25-3.92,8.54-7.8,12.83-11.69l-6.03.56c.99.8,2.17,1.18,3.53,1.16,1.48.4,2.96.77,4.45,1.1,2.49.57,4.99.9,7.53,1.15,8.49.83,17.04.92,25.56,1.13,24.15.59,48.32.47,72.47.51,22.63.04,45.26.22,67.89.06,11.58-.08,23.17-.1,34.75.02,1.69.02-.82-2.29-.8-2.27-1.35-1.19-3.13-2.85-4.96-3.18-2.65-.48-5.47-.19-8.16-.21-7.71-.07-15.4-.22-23.1-.03-10.99.27-21.99.08-32.98.06-12.65-.02-25.3-.03-37.95-.04-12.82,0-25.65,0-38.47.02-10.31.01-20.64.31-30.94-.12-8.69-.36-17.39,0-26.08-.3-1.8-.06-3.61-.21-5.41-.19-1.89.02-3.77.18-5.66.14l5.24,1.46-.76-1.48c-.13-1.64-5.6-.41-6.23.14-4.18,3.64-8.38,7.26-12.6,10.86-1.04.88,1.16,1.36,1.45,1.4,1.08.16,3.51.59,4.43-.26Z"/>
        <path class="st8" d="M141.73,538.86c4.3-3.94,8.62-7.87,12.93-11.8-2.25.24-4.5.48-6.74.71,1.53.92,3.28,1.22,4.99,1.66,2.66.68,5.32,1.22,8.04,1.62,7.46,1.08,14.98,1.33,22.51,1.54,24.81.67,49.63.63,74.45.67s48.02.25,72.02.07c8.03-.06,16.06-.05,24.09-.01,3.45.02,6.9-.06,10.35.07.76.03,1.19-.48.86-1.22-.35-.77-2.35-2.19-3.2-2.26-2.7-.23-5.45-.08-8.16-.09-5.95-.03-11.91-.15-17.86-.11-21.51.16-43.01.1-64.52.07-23.85-.03-47.71-.02-71.56-.23-9.77-.08-19.58-.31-29.34-.76-2.95-.14-5.87-.34-8.8-.66-3.2-.35-6.34-.49-9.55-.73l3.26.85-.7-1.65c.19-1.02-2.41-.66-2.83-.62-1.29.1-3.11.02-4.15.92-4.21,3.66-8.43,7.3-12.69,10.9-1.13.95,1.44,1.35,1.65,1.38,1.18.14,3.94.6,4.95-.32Z"/>
        <path class="st8" d="M138.52,541.22c4.22-3.93,8.47-7.83,12.73-11.71l-3.2.04c1.09,1.65,3.69,2.22,5.51,2.8,6.74,2.16,14.06,2.26,21.07,2.5,24,.82,48.02.72,72.03.77,25.52.05,51.04.21,76.55.1,12.56-.05,25.17-.34,37.73.02.62.02,1.11-.6.88-1.2s-1.72-1.74-2.4-1.76c-8.55-.28-17.14-.11-25.69-.11-21.66,0-43.32.06-64.98.04s-45.33-.03-67.99-.18c-9.14-.06-18.29-.2-27.43-.47-3.22-.1-6.45-.17-9.66-.39-1.87-.18-3.75-.39-5.61-.62-2.39-.16-4.65-.84-6.79-2.04l.26.78v-1.08c.02-1.27-2.82-.84-3.33-.38-4.14,3.73-8.26,7.48-12.33,11.29-1.56,1.46,1.77,2.39,2.64,1.58Z"/>
      </g>
    </g>
    <polyline class="st4" points="131.35 541.39 144.41 529.28 357.8 529.28"/>
  </g>
  <g>
    <g class="st7">
      <g>
        <path class="st8" d="M660.97,535.27c-2.63-2.52-5.26-5.04-7.89-7.55-1.28-1.22-2.57-2.44-3.85-3.66-.43-.41-.82-.93-1.42-1.08-1.14.32-2.3.57-3.47.75-2.9.46-5.81.71-8.75.76-4.48.15-8.96.18-13.44.27-13.61.27-27.23.19-40.84.23-50.78.18-101.57.16-152.36.09-1.92,0,1.32,2.74,1.22,2.64,1.27,1.07,2.57,2.1,3.92,3.07.67.62,1.44,1.03,2.32,1.23,1.33.25,2.65.2,4.01.21,3.28.02,6.56.07,9.84.12,5.84.09,11.67.1,17.51-.06,6.33-.17,12.66-.13,18.99-.11,31.39.11,62.78.11,94.17.05,7.03-.01,14.06-.1,21.09-.03,3.08-.01,6.16.1,9.23.32,3.88-.02,7.76-.04,11.63-.06,4.71-.05,9.39-.17,14.1.02,3.65.15,7.3-.12,10.95.09,1.35.08.9-.08,1.79.81,1.2,1.21,2.4,2.42,3.59,3.64,2.4,2.47,4.78,4.96,7.16,7.44,1.23,1.28,1.24-2.34,1.24-2.39,0-1.5-.06-3-.18-4.49.04-.84-.14-1.61-.55-2.31Z"/>
        <path class="st8" d="M661.64,532.12c-4.28-4.03-8.55-8.07-12.83-12.1l-.48-.24c-4.18,1.52-8.46,1.78-12.87,1.97l.53-.02c-16.91.42-33.81.45-50.72.52-22.91.1-45.82.1-68.73.11-29.08,0-58.16-.08-87.24.01-1.97,0,1.44,2.85,1.32,2.75,1.34,1.15,2.72,2.25,4.15,3.3.71.66,1.52,1.11,2.44,1.36,2.68.52,5.53.22,8.25.25,7.71.08,15.41.23,23.12.02,10.99-.3,21.99-.09,32.98-.07,12.66.03,25.31.04,37.97.05,12.85,0,25.69,0,38.54-.01,10.35-.01,20.73-.34,31.07.19,8.9.46,17.86-.41,26.74.22,3.67.26,7.39.29,11.05.63,1.04.1,2.16.15,3.16.47l-.48-.24c3.91,3.97,7.76,7.99,11.59,12.03,1.35,1.42,1.22-2.95,1.22-2.9,0-1.83-.07-3.66-.21-5.48.04-1-.15-1.94-.56-2.83Z"/>
        <path class="st8" d="M662.41,534.82c-4.23-4.04-8.46-8.08-12.71-12.1l-.47-.21c-3.92,1.3-7.97,1.59-12.08,1.7-8.18.22-16.37.28-24.55.37-25.12.27-50.26.13-75.38.15-35.55.02-71.11.15-106.66,0-1.88,0,1.23,2.67,1.14,2.59,1.22,1.04,2.48,2.03,3.77,2.97.65.6,1.4,1,2.24,1.18.95.18,1.83.19,2.79.2,3.68.03,7.36.07,11.05.13,11.08.17,22.14-.23,33.21-.18,31.26.13,62.53.12,93.79.08,7.17,0,14.34-.08,21.51-.05,6.2.03,12.37.37,18.57.36,5.23-.01,10.54-.24,15.77-.09,3.48.1,6.94.4,10.42.49,2.18.06,4.76-.31,6.37,1.32,1.19,1.21,2.39,2.42,3.56,3.65,2.38,2.48,4.76,4.96,7.13,7.45,1.28,1.34,1.24-2.58,1.24-2.59,0-1.63-.05-3.27-.17-4.89.04-.9-.14-1.74-.55-2.53Z"/>
        <path class="st8" d="M664.04,535.25c-2.51-2.33-5.02-4.66-7.5-7.02-1.28-1.22-2.57-2.43-3.85-3.65-.49-.46-1.03-1.23-1.76-1.23l-1.44.43c-1.44.24-2.88.4-4.34.47-3.77.28-7.56.34-11.34.49-15.47.59-30.94.54-46.42.62-32.8.17-65.59.15-98.39.13-13.73,0-27.46.09-41.19.05-5.43-.02-10.89.09-16.32-.08-.65-.02-1.12.59-.87,1.21.26.65,1.83,1.8,2.54,1.83,2.75.12,5.5.04,8.25.05,7.7.02,15.4.09,23.1.02,24.96-.24,49.93-.02,74.88-.04,24.02-.02,48.05.1,72.07-.17,8.66-.1,17.31-.31,25.97-.5,4.74-.1,9.54-.25,14.28-.01l-.82-.34c4.12,3.96,8.26,7.91,12.39,11.87.75.72,1.25-.66,1.3-1.08.1-.91.18-2.36-.55-3.03Z"/>
        <path class="st8" d="M664.21,534.26c-4.22-4.02-8.44-8.03-12.67-12.04l-.47-.14c-3.99,1.6-8.16,1.37-12.4,1.41-8.24.09-16.48.47-24.72.57-25.13.32-50.27.18-75.4.2s-47.92-.19-71.87.01c-11.56.1-23.14.16-34.7-.02-1.13-.02-.11,1.39.09,1.64.48.5,1,.94,1.58,1.32.68.54,1.42,1,2.2,1.38,1.51.19,2.97.2,4.49.21,3.96.02,7.93.07,11.89.11,11.48.1,22.96-.18,34.45-.14,32.65.09,65.31.08,97.96,0,6.94-.02,13.92-.19,20.86-.05,5.93.12,11.84.22,17.77.17,8.9-.08,17.9-.54,26.76.61,1.21.16,1.86.31,2.75,1.21,1.21,1.21,2.41,2.41,3.61,3.62,2.41,2.43,4.78,4.88,7.16,7.35,1.09,1.13,1.27-1.74,1.28-1.93.03-1.21,0-2.42-.11-3.63.05-.7-.13-1.32-.51-1.87Z"/>
        <path class="st8" d="M659.61,530.99c-2.65-2.53-5.31-5.05-7.97-7.57-1.29-1.22-2.59-2.44-3.89-3.66s-1.07-1.05-3.06-.59c-6.42,1.49-13.16,1.31-19.71,1.46-14.1.34-28.19.37-42.3.43-51.99.23-104,.28-155.99.12-1.85,0,1.18,2.58,1.09,2.5,1.57,1.36,3.7,3.43,5.82,3.86,1.32.27,2.62.21,3.97.22,3.97.02,7.93.1,11.9.13,11.48.11,22.96-.22,34.44-.18,32.63.11,65.25.11,97.88,0,6.91-.02,13.85-.21,20.76-.04,3.99.28,7.99.35,12,.21,1.88-.02,3.76-.03,5.64-.05,5.39-.07,10.76-.21,16.16-.13,3.24.04,6.47-.17,9.71-.16,1.14,0,1.37-.12,2.2.72,1.21,1.21,2.42,2.42,3.63,3.64,2.44,2.45,4.83,4.94,7.21,7.44,1.17,1.22,1.23-2.09,1.24-2.18,0-1.36-.05-2.72-.18-4.08.04-.77-.15-1.47-.55-2.1Z"/>
        <path class="st8" d="M659.56,534.29c-2.63-2.53-5.27-5.05-7.92-7.57-1.29-1.22-2.58-2.44-3.87-3.66-.48-.45-.79-.89-1.42-1.06-1.18.28-2.38.5-3.58.68-2.95.44-5.91.7-8.89.77-4.5.18-9,.23-13.5.32-13.63.27-27.26.21-40.89.26-50.8.17-101.59.06-152.39.09-1.92,0,1.33,2.73,1.22,2.64,1.27,1.07,2.58,2.09,3.93,3.06.67.62,1.45,1.03,2.32,1.23,1.34.25,2.66.21,4.02.21,3.28.02,6.57.06,9.85.11,12.16.18,24.32-.2,36.49-.16,31.39.11,62.77.1,94.16.02,7.03-.02,14.06-.1,21.09-.05,3.09-.02,6.17.07,9.25.28,3.87-.03,7.74-.06,11.62-.09,4.71-.07,9.4-.21,14.11-.13,3.72.06,7.4-.27,11.12-.37,1.39-.04,1.02-.27,1.93.65,1.21,1.21,2.42,2.42,3.63,3.64,2.43,2.47,4.84,4.95,7.24,7.45,1.17,1.21,1.23-2.08,1.24-2.17,0-1.36-.06-2.72-.18-4.07.04-.77-.15-1.46-.55-2.09Z"/>
        <path class="st8" d="M661.38,535.95c-2.51-2.32-5-4.65-7.48-7-1.28-1.22-2.56-2.43-3.84-3.65-.5-.48-1.02-1.21-1.76-1.23l-1.44.37c-1.4.24-2.81.43-4.23.55-3.7.39-7.41.59-11.12.76-13.26.59-26.51.56-39.78.66-32.74.22-65.48.19-98.21.18-14.56,0-29.11.09-43.67.06-6.8-.02-13.63.17-20.42-.07-.83-.03-1.26.39-.87,1.21.51.55,1.07,1.04,1.7,1.46.6.46,1.24.84,1.93,1.14,1.87.2,3.76.13,5.64.14,7.76.02,15.51.22,23.27.09,24.6-.44,49.22-.08,73.83-.1,24.24-.02,48.5-.38,72.73-.1,9.43.11,18.9-.37,28.32-.79,4.39-.19,8.77-.7,13.15-1.04l-.82-.34c4.12,3.96,8.24,7.91,12.37,11.86.76.73,1.25-.7,1.29-1.11.09-.92.16-2.38-.58-3.06Z"/>
        <path class="st8" d="M663.69,531.43c-4.25-4.05-8.51-8.09-12.78-12.12l-.47-.19c-3.96,1.73-8.1,1.84-12.38,1.92-8.24.17-16.49.34-24.73.45-25.13.31-50.28.18-75.42.2-23.96.02-47.92-.16-71.88.01-11.58.08-23.18.12-34.76-.01-1.64-.02.73,2.22.73,2.22,1.3,1.15,3,2.72,4.76,3.03,1.3.23,2.6.18,3.92.18,3.28.02,6.56.05,9.85.1,12.17.16,24.33-.18,36.5-.14,31.42.1,62.84.09,94.26.04,7.07-.01,14.14-.06,21.21-.03,3.11-.03,6.21.06,9.31.28,3.93,0,7.86-.02,11.78-.02,8.05-.07,16.09-.13,24.11.78,1.64.19,3.49.26,4.69,1.48,1.2,1.21,2.39,2.42,3.58,3.64,2.4,2.46,4.77,4.94,7.12,7.44,1.22,1.29,1.26-2.35,1.26-2.4.02-1.51-.03-3.03-.14-4.54.05-.84-.13-1.62-.53-2.34Z"/>
        <path class="st8" d="M659.99,535.63c-2.62-2.44-5.24-4.89-7.83-7.36-1.28-1.22-2.56-2.44-3.85-3.65-1.22-1.15-1.05-1-2.88-.65-6.43,1.24-13.08,1.23-19.6,1.41-14.08.4-28.15.37-42.24.43-32.79.16-65.59.13-98.38.11-19.18,0-38.37.19-57.55,0-1.67-.02.83,2.27.8,2.24,1.35,1.16,3.11,2.72,4.91,3.04,1.31.23,2.61.18,3.93.18,3.96.02,7.93.09,11.89.13,11.48.1,22.96-.21,34.45-.17,32.62.1,65.24.11,97.86-.04,6.91-.03,13.85-.23,20.75-.09,5.88.12,11.73.18,17.6.06,5.43-.11,10.86-.34,16.29-.48,3.24-.09,6.45-.53,9.68-.78,1.32-.1,1.68-.33,2.63.6,1.22,1.2,2.44,2.4,3.66,3.61,2.43,2.41,4.84,4.82,7.25,7.25.95.96,1.25-1.25,1.27-1.54.06-1.09.27-3.46-.64-4.31Z"/>
        <path class="st8" d="M662.58,530.04c-4.27-4.05-8.55-8.1-12.84-12.13l-.47-.19c-4.02,1.69-8.21,1.89-12.54,2.01-8.24.24-16.48.4-24.72.51-25.14.32-50.29.2-75.43.22-23.96.02-47.92-.13-71.88.02-11.59.07-23.19.11-34.78-.01-1.69-.02.82,2.3.8,2.28,1.35,1.2,3.14,2.87,4.97,3.22.93.17,1.79.18,2.73.19,3.69.02,7.37.05,11.06.1,11.07.14,22.13-.19,33.19-.15,31.28.11,62.57.1,93.85.05,7.19-.01,14.37-.06,21.56-.06,6.25,0,12.48.29,18.73.27,9.05-.03,18.07-.21,27.11.36,2.34.15,5.6-.23,7.33,1.51,1.2,1.21,2.41,2.43,3.61,3.64,2.42,2.46,4.8,4.95,7.17,7.45,1.23,1.3,1.25-2.37,1.25-2.41.01-1.52-.04-3.04-.16-4.55.04-.84-.13-1.63-.54-2.35Z"/>
        <path class="st8" d="M658.73,532.24c-2.64-2.51-5.29-5.01-7.94-7.52-1.29-1.22-2.58-2.44-3.88-3.66-.53-.5-.76-.85-1.42-1.02-1.23.32-2.47.57-3.72.76-3,.41-6.01.68-9.03.79-4.52.2-9.05.29-13.58.4-13.64.31-27.28.26-40.92.31-50.79.19-101.59.3-152.39.1-1.83,0,1.15,2.54,1.06,2.47,1.55,1.33,3.63,3.32,5.71,3.74,1.32.27,2.62.21,3.96.22,3.97.02,7.93.1,11.9.13,11.48.1,22.96-.22,34.44-.18,32.62.1,65.24.11,97.86-.02,6.9-.03,13.84-.22,20.74-.07,3.99.27,7.98.33,11.98.18l5.63-.07c5.38-.09,10.75-.28,16.13-.33,3.27-.03,6.54-.41,9.8-.63,1.15-.08,1.36-.26,2.21.58,1.22,1.21,2.43,2.42,3.65,3.63,2.44,2.44,4.85,4.9,7.26,7.38,1.08,1.11,1.24-1.71,1.24-1.88.01-1.17-.05-2.34-.17-3.5.03-.68-.15-1.28-.54-1.8Z"/>
      </g>
    </g>
    <polyline class="st4" points="661.66 543.08 648.6 530.97 435.21 530.97"/>
  </g>
  <polyline class="st4" points="80.13 563.7 91.23 575.3 285.75 575.3"/>
  <polyline class="st3" points="87.5 557.41 98.36 569.5 288.6 569.5"/>
  <polyline class="st4" points="712.08 564.37 700.98 575.96 506.46 575.96"/>
  <polyline class="st3" points="704.7 558.07 693.85 570.16 503.61 570.16"/>
  <polyline class="st0" points="322.23 570.16 329.28 557.41 329.67 345.21"/>
  <polyline class="st0" points="469.4 570.16 462.36 557.41 461.96 345.21"/>
  <polyline class="st0" points="322.23 42.95 329.28 55.71 329.67 267.91"/>
  <polyline class="st0" points="469.4 42.95 462.36 55.71 461.96 267.91"/>
  <line class="st2" x1="35.46" y1="426.33" x2="36.3" y2="612"/>
  <line class="st2" x1="35.46" y1="185.79" x2="35.46" y2="0"/>
  <line class="st2" x1="292.79" y1="47.44" y2="47.44"/>
  <line class="st2" x1="498.28" y1="47.79" x2="792" y2="47.79"/>
  <line class="st2" x1="568.4" y1="25.58" x2="792" y2="25.58"/>
  <line class="st2" x1="755.93" y1="0" x2="755.93" y2="188.83"/>
  <polyline class="st1" points="363.81 62.52 167.31 62.52 154.74 75.26"/>
  <polyline class="st1" points="430.85 62.52 627.35 62.52 639.92 75.26"/>
  <rect class="st5" x="129.52" y="152.08" width="14.01" height="13.4"/>
  <line class="st2" x1="755.52" y1="426.33" x2="756.35" y2="612"/>
  <line class="st3" x1="101.78" y1="117.76" x2="692.8" y2="117.76"/>
  <line class="st3" x1="103.88" y1="131.46" x2="288.93" y2="131.46"/>
  <line class="st2" x1="129.65" y1="141.79" x2="344.83" y2="141.79"/>
  <line class="st2" x1="448.34" y1="141.79" x2="663.52" y2="141.79"/>
  <line class="st3" x1="505.43" y1="131.46" x2="690.48" y2="131.46"/>
</svg>