<?xml version="1.0" encoding="UTF-8"?>
<svg id="Layer_2" xmlns="http://www.w3.org/2000/svg" version="1.1" viewBox="0 0 720 720">
  <!-- Generator: Adobe Illustrator 29.0.0, SVG Export Plug-In . SVG Version: 2.1.0 Build 186)  -->
  <defs>
    <style>
      .st0 {
        fill: #fff;
        stroke: #231f20;
        stroke-miterlimit: 10;
      }
    </style>
  </defs>
  <polygon class="st0" points="364.58 647.1 423.51 567.31 423.51 554.58 411.62 540.99 423.51 467.14 441.33 454.83 443.88 424.7 517.73 302.89 487.59 302.89 479.11 318.59 439.21 317.32 439.21 369.95 457.46 387.35 432.42 409.85 432.42 429.37 400.59 461.2 389.98 526.56 364.58 549.06 338.2 526.14 329.28 462.47 295.33 428.52 295.33 409 271.14 387.35 289.39 369.1 289.81 318.17 250.76 318.59 240.58 302.89 209.59 302.89 283.87 426.4 287.69 455.68 306.36 467.57 317.82 542.69 303.82 557.97 303.82 568.16 364.58 647.1"/>
  <line class="st0" x1="352.77" y1="593.96" x2="336.96" y2="575.56"/>
  <line class="st0" x1="372.99" y1="593.96" x2="388.8" y2="575.56"/>
  <circle class="st0" cx="335.49" cy="573.28" r="4.25"/>
  <circle class="st0" cx="390.46" cy="572.6" r="4.25"/>
  <circle class="st0" cx="363.66" cy="531.88" r="4.25"/>
  <circle class="st0" cx="363.66" cy="305.19" r="4.25"/>
  <path class="st0" d="M361.65,308.93l-.85,6.92.3,20.4-19.18,10.35v32.39l-19.18,17.85v15.53l19.65,16.14,8.88,84.34,10.58,15.2s-2.42,1.06-2.42,3.83l-14.55-12.38-9.37-89.06-20.75-17.04v-16.4l20.26-18.85v-34.2l20.26-10.93-.32-21.54,5.08-4.12s.42.92,1.64,1.57Z"/>
  <path class="st0" d="M365.59,308.97l.91,6.87-.3,20.4,19.18,10.35v32.39s19.18,17.85,19.18,17.85v15.53s-19.65,16.14-19.65,16.14l-8.88,84.34-10.31,15.32s2.35,1.05,2.19,3.72l14.17-12.38,9.37-89.06,20.75-17.04v-16.4s-20.26-18.85-20.26-18.85v-34.2s-20.26-10.93-20.26-10.93l.32-21.54-4.8-3.97s-.74.98-1.63,1.46Z"/>
  <polygon class="st0" points="305.07 411.68 278.35 387.06 295.14 372.61 294.21 318.67 300.72 336.65 322.73 336.34 322.73 373.85 304.14 390.29 305.07 411.68"/>
  <polygon class="st0" points="421.64 411.68 450.16 388.12 432.8 371.99 432.49 320.84 426.91 336.65 403.35 336.03 403.35 371.99 422.57 389.98 421.64 411.68"/>
  <polygon class="st0" points="303.7 330.42 331.76 330.42 342.16 323.35 342.16 306.03 355.67 295.05 282.39 185.52 246.08 108.41 253.19 191.14 303.7 330.42"/>
  <polygon class="st0" points="423.93 330.42 395.87 330.42 385.47 323.35 385.47 306.03 371.96 295.05 445.24 185.52 481.55 108.41 474.44 191.14 423.93 330.42"/>
  <polygon class="st0" points="304.84 505.1 300.54 468.54 253.39 438.3 225.86 431.08 248.88 468.09 304.84 505.1"/>
  <polygon class="st0" points="280.14 449.57 276.98 427.18 261.05 405.5 241.1 398.61 207.95 374.22 230.48 416.41 280.14 449.57"/>
  <polygon class="st0" points="422.72 507.38 427.01 470.83 474.17 440.59 501.69 433.37 478.68 470.38 422.72 507.38"/>
  <polygon class="st0" points="447.42 451.85 450.57 429.46 466.5 407.79 486.45 400.9 519.61 376.5 497.08 418.7 447.42 451.85"/>
  <polygon class="st0" points="246.08 202.87 261.44 238.44 231.59 297.5 209.59 297.5 248.74 233.36 235.52 219.42 246.08 202.87"/>
  <polygon class="st0" points="203.65 309.43 214.44 325.45 135.69 463.91 180.15 540.76 309.71 540.76 283.04 573.28 158.55 573.28 149.66 550.92 154.11 542.03 119.81 482.33 107.74 482.33 96.31 462 157.28 357.84 175.07 357.84 203.65 309.43"/>
  <polygon class="st0" points="293.2 184.45 278.35 153.96 300.54 112.05 322.73 112.05 328.13 119.03 399.9 119.03 403.35 112.05 426.76 112.05 450.16 153.96 434.2 187.63 408.16 143.8 318.6 145.71 293.2 184.45"/>
  <polygon class="st0" points="479.77 202.87 464.4 238.44 494.25 297.5 516.25 297.5 477.11 233.36 490.33 219.42 479.77 202.87"/>
  <polygon class="st0" points="522.2 309.43 511.4 325.45 590.16 463.91 545.7 540.76 416.13 540.76 442.81 573.28 567.29 573.28 576.19 550.92 571.74 542.03 606.04 482.33 618.1 482.33 629.54 462 568.56 357.84 550.78 357.84 522.2 309.43"/>
</svg>