<?xml version="1.0" encoding="UTF-8"?>
<svg id="Layer_1" xmlns="http://www.w3.org/2000/svg" version="1.1" viewBox="0 0 16 16">
  <!-- Generator: Adobe Illustrator 29.3.0, SVG Export Plug-In . SVG Version: 2.1.0 Build 146)  -->
  <defs>
    <style>
      .st0 {
        fill: #231f20;
      }

      .st1 {
        fill: #fff;
      }
    </style>
  </defs>
  <rect class="st0" width="16" height="16"/>
  <polygon class="st1" points="3.66 10.19 3.93 10.86 3.93 11.18 5.14 11.62 5.14 11.16 5.55 11.43 5.68 11.42 5.68 11.22 5.47 10.96 5.76 11.07 5.65 10.64 6.01 10.77 5.96 10.54 6.23 10.65 6.11 10.38 6.77 9.66 7.58 9.6 6.09 11.22 6.09 11.41 5.82 11.34 5.87 11.75 5.62 11.78 5.55 12.56 6.43 12.42 6.48 11.82 6.83 11.18 7.65 11.2 7.65 11.08 7.55 10.89 7.85 10.37 8.42 10.35 8.7 10.14 8.87 9.84 8.87 9.24 8.79 9 9.36 9.51 9.68 9 9.91 8.45 9.96 7.95 10.41 7.44 11.24 6.97 10.1 6.97 9.01 7.21 9.93 6.63 10.96 6.3 12.13 5.92 12.69 5.53 13.01 5.01 13.01 4.59 12.47 5.18 11.92 5.32 10.26 5.53 9.14 5.71 10.52 4.84 10.98 4.18 11.03 3.51 10.4 4.24 8.9 4.66 7.79 4.99 6.76 5.85 6.51 6.41 6.1 5.93 6.12 6.53 4.76 8.21 4.56 8.71 4.75 8.97 3.66 10.19"/>
  <polygon class="st0" points="5.7 8.74 7.28 7.69 6.59 8.81 5.7 8.74"/>
</svg>